<svg xmlns="http://www.w3.org/2000/svg" viewBox="0 0 60 60" style="enable-background:new 0 0 60 60;">
	<path d="M59,53h-1V21c0-1.7-1.3-3-3-3h-5V8l0,0c0-0.1,0-0.2-0.1-0.3V7.6c-0.1-0.1-0.1-0.2-0.2-0.3l-7-7c-0.1-0.1-0.2-0.1-0.3-0.2    h-0.1C42.2,0.1,42.1,0,42,0l0,0H12c-0.6,0-1,0.4-1,1v17H5c-1.7,0-3,1.3-3,3v32H1c-0.6,0-1,0.4-1,1v4c0,1.2,0.8,2,2,2h56    c1.2,0,2-0.8,2-2v-4C60,53.4,59.6,53,59,53z M50,24h3v26h-3V24z M46.6,7H43V3.4L46.6,7z M13,2h28v6c0,0.6,0.4,1,1,1h6v41H13V2z     M7,50V24h4v26H7z M58,58H2v-3h1h51v-2H4V21c0-0.6,0.4-1,1-1h6v2H6c-0.6,0-1,0.4-1,1v28c0,0.6,0.4,1,1,1h6h37h5c0.6,0,1-0.4,1-1    V23c0-0.6-0.4-1-1-1h-4v-2h5c0.6,0,1,0.4,1,1v33c0,0.6,0.4,1,1,1h1V58z" fill="#FFFFFF"/>
	<path d="M21,20.6l-1.3-1.3l-1.4,1.4l2,2c0.2,0.2,0.4,0.3,0.7,0.3s0.5-0.1,0.7-0.3l5-5l-1.4-1.4L21,20.6z" fill="#FFFFFF"/>
	<rect x="29" y="17" width="4" height="2" fill="#FFFFFF"/>
	<rect x="29" y="21" width="14" height="2" fill="#FFFFFF"/>
	<path d="M21,32.6l-1.3-1.3l-1.4,1.4l2,2c0.2,0.2,0.4,0.3,0.7,0.3s0.5-0.1,0.7-0.3l5-5l-1.4-1.4L21,32.6z" fill="#FFFFFF"/>
	<rect x="29" y="29" width="4" height="2" fill="#FFFFFF"/>
	<rect x="29" y="33" width="14" height="2" fill="#FFFFFF"/>
	<path d="M21,43.6l-1.3-1.3l-1.4,1.4l2,2c0.2,0.2,0.4,0.3,0.7,0.3s0.5-0.1,0.7-0.3l5-5l-1.4-1.4L21,43.6z" fill="#FFFFFF"/>
	<rect x="29" y="40" width="4" height="2" fill="#FFFFFF"/>
	<rect x="29" y="44" width="14" height="2" fill="#FFFFFF"/>
	<rect x="18" y="5" width="4" height="2" fill="#FFFFFF"/>
	<rect x="18" y="9" width="7" height="2" fill="#FFFFFF"/>
</svg>
